<?xml version="1.0" standalone="no"?>
<!DOCTYPE svg PUBLIC "-//W3C//DTD SVG 20010904//EN"
 "http://www.w3.org/TR/2001/REC-SVG-20010904/DTD/svg10.dtd">
<svg version="1.0" xmlns="http://www.w3.org/2000/svg"
 width="256.000000pt" height="256.000000pt" viewBox="0 0 256.000000 256.000000"
 preserveAspectRatio="xMidYMid meet">

<g transform="translate(0.000000,256.000000) scale(0.100000,-0.100000)" stroke="none">
<path d="M830 2364 c-305 -82 -410 -467 -190 -696 l46 -48 -46 -48 c-58 -61
-98 -140 -113 -226 -21 -126 22 -263 113 -358 l46 -48 -46 -48 c-159 -165
-157 -427 4 -588 228 -227 620 -121 701 191 11 44 15 111 15 257 l0 197 48
-29 c203 -125 481 -42 588 175 77 158 46 350 -76 477 l-46 48 46 48 c222 231
114 617 -195 697 -85 22 -812 21 -895 -1z m370 -405 l0 -261 -167 4 c-187 4
-216 12 -279 80 -54 57 -69 95 -69 178 0 83 15 121 69 178 65 70 103 80 294
81 l152 1 0 -261z m530 237 c49 -26 98 -74 123 -121 29 -53 30 -173 3 -225
-25 -49 -74 -98 -121 -123 -35 -19 -59 -22 -207 -25 l-168 -4 0 262 0 262 168
-4 c139 -3 173 -6 202 -22z m-530 -917 l0 -261 -167 4 c-187 4 -216 12 -279
80 -54 57 -69 95 -69 178 0 83 15 121 69 178 65 70 103 80 294 81 l152 1 0
-261z m535 233 c47 -24 95 -73 121 -122 13 -25 19 -56 19 -110 0 -83 -15 -121
-69 -178 -53 -57 -101 -77 -186 -77 -85 0 -133 20 -186 77 -54 57 -69 95 -69
178 0 83 15 121 69 178 31 34 70 58 116 73 41 14 142 3 185 -19z m-537 -819
c-3 -184 -9 -205 -72 -271 -53 -57 -101 -77 -186 -77 -85 0 -133 20 -186 77
-54 57 -69 95 -69 178 0 83 15 121 69 178 65 70 103 80 294 81 l154 1 -4 -167z"/>
</g>
</svg>
