<?xml version="1.0" standalone="no"?>
<!DOCTYPE svg PUBLIC "-//W3C//DTD SVG 20010904//EN"
 "http://www.w3.org/TR/2001/REC-SVG-20010904/DTD/svg10.dtd">
<svg version="1.0" xmlns="http://www.w3.org/2000/svg"
 width="800.000000pt" height="800.000000pt" viewBox="0 0 800.000000 800.000000"
 preserveAspectRatio="xMidYMid meet">
<metadata>
Created by potrace 1.16, written by Peter Selinger 2001-2019
</metadata>
<g transform="translate(0.000000,800.000000) scale(0.100000,-0.100000)"
fill="#000000" stroke="none">
<path d="M419 7956 c-165 -58 -277 -154 -348 -299 -38 -78 -44 -101 -52 -190
-6 -62 -8 -1465 -7 -3542 l3 -3440 23 -63 c36 -95 69 -149 138 -221 71 -75
142 -122 241 -156 l68 -25 3510 0 3510 0 77 26 c98 32 178 84 249 161 66 71
99 128 131 221 l23 67 0 3515 0 3515 -31 76 c-75 184 -192 294 -382 358 l-61
21 -3513 0 -3513 0 -66 -24z m1578 -1102 c294 -95 483 -354 483 -661 0 -112
-20 -196 -72 -303 -34 -70 -57 -101 -132 -176 -103 -102 -183 -148 -327 -185
-151 -39 -333 -16 -476 60 -133 71 -237 182 -302 322 -45 96 -61 171 -61 285
0 200 59 343 200 484 115 116 243 180 405 204 66 10 206 -5 282 -30z m3670
-1779 c348 -45 593 -165 789 -386 172 -194 280 -492 331 -914 14 -122 17 -297
20 -1357 l4 -1218 -595 0 -595 0 -3 1102 c-4 1090 -4 1104 -26 1216 -58 296
-161 432 -382 508 -45 16 -83 19 -215 18 -148 0 -166 -2 -240 -28 -113 -39
-174 -77 -244 -151 -64 -69 -127 -184 -155 -285 -50 -177 -49 -154 -53 -1303
l-4 -1077 -590 0 -589 0 0 1900 0 1900 565 0 565 0 0 -260 c0 -143 4 -260 9
-260 4 0 24 26 44 58 141 227 392 410 683 497 178 54 450 70 681 40z m-3287
-1975 l0 -1900 -590 0 -590 0 0 1900 0 1900 590 0 590 0 0 -1900z"/>
</g>
</svg>
