<?xml version="1.0" standalone="no"?>
<!DOCTYPE svg PUBLIC "-//W3C//DTD SVG 20010904//EN"
 "http://www.w3.org/TR/2001/REC-SVG-20010904/DTD/svg10.dtd">
<svg version="1.0" xmlns="http://www.w3.org/2000/svg"
 width="1620.000000pt" height="540.000000pt" viewBox="0 0 1620.000000 540.000000"
 preserveAspectRatio="xMidYMid meet">
<metadata>
Created by potrace 1.16, written by Peter Selinger 2001-2019
</metadata>
<g transform="translate(0.000000,540.000000) scale(0.100000,-0.100000)"
fill="#000000" stroke="none">
<path d="M12015 4883 c-285 -33 -501 -89 -715 -183 -174 -77 -261 -148 -314
-260 -29 -61 -31 -72 -31 -175 1 -98 3 -116 27 -168 38 -80 124 -168 201 -203
55 -26 73 -29 157 -28 87 0 103 3 185 38 240 102 405 139 630 140 176 1 267
-16 360 -68 115 -63 174 -182 162 -328 -14 -163 -113 -274 -292 -326 -33 -9
-131 -17 -290 -22 -196 -6 -251 -11 -301 -27 -123 -40 -204 -124 -240 -247
-26 -92 -16 -252 20 -331 43 -96 103 -148 220 -193 32 -12 106 -17 341 -22
260 -7 311 -10 379 -29 134 -36 209 -92 255 -191 23 -48 26 -68 26 -160 0 -88
-4 -113 -23 -155 -80 -176 -292 -257 -635 -242 -224 10 -380 44 -601 132 -147
58 -192 69 -281 63 -143 -9 -273 -98 -332 -226 -79 -169 -43 -352 94 -489 97
-97 287 -184 539 -247 259 -66 594 -96 862 -77 171 11 361 37 375 51 5 4 -6
27 -25 51 -146 193 -158 534 -25 771 59 105 112 166 475 547 191 200 348 367
350 371 1 4 -33 41 -77 83 -90 86 -201 155 -312 194 l-76 27 58 27 c292 139
477 427 496 776 l6 113 -74 -21 c-41 -11 -126 -44 -189 -74 -186 -87 -286
-107 -406 -82 -206 44 -377 218 -428 437 -29 123 -13 247 50 377 44 92 130
182 232 243 40 23 70 46 67 50 -8 13 -215 60 -333 75 -97 13 -480 19 -567 8z"/>
<path d="M13720 4874 c-350 -48 -759 -196 -887 -323 -97 -95 -148 -248 -124
-368 28 -141 109 -251 226 -309 70 -35 76 -36 162 -32 92 4 87 2 301 97 228
101 515 135 710 85 143 -37 242 -114 282 -221 71 -188 12 -425 -164 -660 -92
-123 -129 -163 -741 -803 -275 -287 -519 -548 -543 -579 -102 -134 -148 -279
-139 -436 15 -258 125 -377 371 -406 109 -13 2019 -11 2113 2 153 21 256 94
305 217 31 79 33 300 4 377 -41 108 -112 176 -221 212 -44 16 -118 18 -659 21
l-609 3 410 412 c225 227 447 459 493 517 260 325 380 600 412 942 20 222 -16
470 -95 640 -161 349 -511 563 -1009 617 -135 15 -471 12 -598 -5z"/>
<path d="M687 3660 c-151 -26 -219 -117 -219 -295 0 -108 18 -165 70 -218 71
-73 96 -77 492 -77 l350 0 2 -982 3 -983 23 -57 c29 -71 88 -133 160 -166 44
-20 77 -26 153 -30 202 -10 325 65 373 228 14 47 16 167 16 1022 l0 968 348 0
c377 0 411 4 477 54 18 14 46 52 62 83 26 53 28 67 27 163 0 113 -11 152 -60
209 -35 42 -88 68 -165 81 -76 12 -2038 12 -2112 0z"/>
<path d="M3656 2859 c-247 -36 -487 -171 -634 -356 -151 -189 -220 -422 -209
-698 21 -508 319 -837 852 -942 139 -27 444 -25 591 5 166 33 303 84 380 140
135 99 130 340 -9 426 -77 47 -135 47 -282 -2 -143 -48 -245 -65 -380 -65
-268 2 -417 102 -471 317 l-6 26 598 2 c653 3 634 2 678 61 38 51 31 245 -14
422 -28 107 -106 265 -174 352 -129 164 -340 280 -570 312 -89 13 -264 13
-350 0z m312 -462 c129 -34 206 -136 236 -314 l6 -33 -362 0 -361 0 7 43 c9
57 56 155 96 200 85 98 239 140 378 104z"/>
<path d="M5815 2863 c-137 -17 -258 -40 -357 -69 -252 -72 -330 -146 -332
-314 -1 -83 19 -133 71 -181 80 -74 161 -81 323 -25 207 72 462 98 588 61 97
-29 152 -115 152 -235 l0 -47 -247 -6 c-506 -14 -747 -73 -890 -218 -84 -85
-123 -195 -123 -349 0 -178 49 -301 170 -421 132 -132 315 -205 540 -216 135
-6 228 10 327 56 75 36 164 117 204 186 17 30 30 43 32 35 34 -119 42 -136 78
-175 67 -72 114 -89 249 -90 96 0 122 3 161 21 62 29 114 85 141 153 23 55 23
64 26 546 4 631 -6 728 -100 908 -112 215 -322 338 -643 376 -84 10 -303 13
-370 4z m443 -1230 c-8 -132 -70 -231 -183 -291 -45 -24 -61 -27 -155 -27 -87
0 -112 4 -145 21 -109 57 -139 216 -54 288 68 58 188 83 408 85 l134 1 -5 -77z"/>
<path d="M8426 2854 c-156 -35 -299 -125 -386 -245 l-27 -38 -6 44 c-8 55 -46
131 -84 167 -15 15 -50 37 -78 50 -44 20 -66 23 -175 23 -117 0 -129 -2 -183
-29 -71 -35 -119 -96 -142 -181 -14 -53 -16 -148 -13 -815 l3 -755 28 -57 c32
-64 80 -111 146 -142 39 -18 65 -21 171 -21 110 0 131 3 178 24 67 30 132 102
157 173 17 48 19 100 25 548 7 560 5 549 88 641 53 60 113 84 202 83 95 -1
149 -35 187 -119 16 -36 18 -88 23 -570 5 -485 7 -535 25 -583 24 -70 83 -135
153 -169 53 -26 66 -28 177 -28 116 0 123 1 187 33 70 34 105 71 141 150 21
46 22 60 28 537 6 527 6 533 62 630 58 103 232 154 338 99 36 -18 76 -67 90
-112 9 -26 14 -191 19 -567 5 -474 8 -535 24 -577 25 -66 86 -132 154 -165 53
-26 66 -28 177 -28 111 0 124 2 177 28 77 38 133 103 158 185 19 60 20 93 20
576 0 525 -5 620 -41 761 -80 317 -310 479 -658 462 -137 -6 -208 -23 -316
-76 -100 -49 -184 -117 -246 -198 l-48 -62 -31 56 c-68 119 -170 203 -307 249
-99 34 -288 43 -397 18z"/>
</g>
</svg>
