<?xml version="1.0" encoding="utf-8"?>
<!-- Generator: Adobe Illustrator 16.0.0, SVG Export Plug-In . SVG Version: 6.00 Build 0)  -->
<!DOCTYPE svg PUBLIC "-//W3C//DTD SVG 1.1//EN" "http://www.w3.org/Graphics/SVG/1.1/DTD/svg11.dtd">
<svg version="1.1" id="Layer_1" xmlns="http://www.w3.org/2000/svg" xmlns:xlink="http://www.w3.org/1999/xlink" x="0px" y="0px"
	 width="193px" height="116px" viewBox="0 0 193 116" enable-background="new 0 0 193 116" xml:space="preserve">
<g>
	<path fill-rule="evenodd" clip-rule="evenodd" fill="#828487" d="M150.694,54.498c0.478-0.463,0.844-0.89,1.312-1.202
		c1.803-1.208,3.702-1.369,5.673-0.472c0.64,0.29,1.123,0.798,1.508,1.379c0.179,0.27,0.276,0.27,0.488,0.031
		c0.869-0.986,1.916-1.706,3.242-1.88c1.583-0.209,3.095-0.042,4.372,1.065c0.896,0.778,1.254,1.798,1.325,2.935
		c0.185,2.97,0.047,5.944,0.082,8.915c0.002,0.157-0.027,0.313-0.052,0.471c-0.199,1.284-0.912,1.879-2.164,1.813
		c-0.95-0.052-1.71-0.946-1.72-2.084c-0.016-1.837-0.003-3.674-0.006-5.513c-0.003-0.905-0.004-1.807-0.069-2.711
		c-0.128-1.793-1.564-2.604-3.147-1.738c-0.995,0.542-1.44,1.425-1.542,2.526c-0.202,2.164-0.051,4.333-0.102,6.498
		c-0.008,0.36-0.017,0.718-0.051,1.076c-0.129,1.342-0.834,1.982-2.127,1.946c-0.985-0.03-1.727-0.871-1.742-2.084
		c-0.028-2.34-0.008-4.682-0.019-7.022c-0.003-0.516-0.033-1.034-0.09-1.546c-0.15-1.335-1.081-1.912-2.576-1.652
		c-1.02,0.177-1.628,0.767-1.911,1.744c-0.274,0.946-0.363,1.912-0.361,2.89c0.004,1.694,0.005,3.391-0.002,5.084
		c-0.001,0.314-0.023,0.633-0.073,0.94c-0.157,0.99-0.873,1.637-1.797,1.648c-1.066,0.008-1.775-0.566-1.979-1.595
		c-0.05-0.254-0.077-0.509-0.076-0.768c0.002-3.593,0.003-7.181-0.001-10.772c0-0.275,0.032-0.544,0.093-0.81
		c0.204-0.891,0.975-1.454,1.869-1.373c0.921,0.082,1.62,0.818,1.645,1.739C150.698,54.117,150.694,54.257,150.694,54.498z"/>
	<path fill-rule="evenodd" clip-rule="evenodd" fill="#828487" d="M102.701,57.106c0-2.729,0.001-5.458-0.002-8.186
		c-0.001-0.306,0.054-0.598,0.143-0.888c0.269-0.865,0.923-1.35,1.863-1.388c0.842-0.034,1.613,0.473,1.913,1.271
		c0.153,0.407,0.211,0.829,0.21,1.265c-0.005,1.795,0.007,3.59-0.01,5.385c-0.003,0.331,0.095,0.401,0.411,0.4
		c2.671-0.013,5.342-0.015,8.013,0.001c0.343,0.003,0.395-0.113,0.393-0.417c-0.013-1.794-0.004-3.591-0.008-5.385
		c0-0.288,0.026-0.57,0.084-0.854c0.205-1.002,0.898-1.61,1.913-1.664c0.936-0.05,1.75,0.547,2.013,1.491
		c0.077,0.274,0.119,0.558,0.119,0.849c-0.003,5.428-0.001,10.857-0.004,16.283c-0.001,1.071-0.489,1.895-1.302,2.181
		c-1.317,0.466-2.796-0.2-2.816-2.161c-0.021-1.98-0.005-3.961-0.005-5.942c0-0.245-0.013-0.491,0.003-0.733
		c0.016-0.234-0.083-0.29-0.301-0.289c-2.729,0.005-5.457,0.009-8.186-0.005c-0.34-0.001-0.322,0.172-0.321,0.401
		c0.002,2.125,0.002,4.25,0,6.376c0,0.582-0.094,1.141-0.422,1.638c-0.429,0.654-1.07,0.895-1.812,0.852
		c-0.837-0.05-1.421-0.489-1.715-1.283c-0.12-0.323-0.177-0.662-0.177-1.012C102.703,62.563,102.701,59.836,102.701,57.106z"/>
	<path fill-rule="evenodd" clip-rule="evenodd" fill="#ED3028" d="M87.451,65.09c-0.778,0.867-1.552,1.567-2.528,1.995
		c-2.937,1.284-6.116,0.137-7.643-2.748c-0.946-1.785-1.147-3.706-0.993-5.681c0.088-1.124,0.333-2.215,0.883-3.21
		c1.213-2.198,3.101-3.196,5.594-3.159c1.706,0.027,3.106,0.7,4.3,1.871c0.101,0.099,0.204,0.195,0.312,0.298
		c0.112-0.125,0.053-0.258,0.054-0.375c0.011-1.824-0.001-3.647,0.025-5.472c0.016-1.086,0.576-1.778,1.482-1.924
		c1.039-0.167,1.85,0.406,2.024,1.445c0.042,0.252,0.062,0.513,0.062,0.77c0.003,5.486,0.004,10.971,0.001,16.457
		c0,0.672-0.088,1.33-0.632,1.804c-0.529,0.459-1.147,0.557-1.804,0.306c-0.723-0.276-1.038-0.864-1.132-1.592
		C87.426,65.653,87.451,65.423,87.451,65.09z M87.211,59.938c0.01-0.868-0.108-1.712-0.438-2.523
		c-0.584-1.432-1.768-2.296-3.17-2.299c-1.417-0.003-2.575,0.805-3.115,2.277c-0.622,1.698-0.648,3.426,0.047,5.114
		c0.518,1.257,1.444,2.048,2.851,2.137c1.508,0.098,2.589-0.574,3.267-1.91C87.099,61.855,87.214,60.909,87.211,59.938z"/>
	<path fill-rule="evenodd" clip-rule="evenodd" fill="#828487" d="M179.751,60.903c-1.478,0-2.67,0.008-3.862-0.006
		c-0.285-0.004-0.397,0.05-0.387,0.373c0.067,2.209,1.743,3.865,3.856,3.784c1.289-0.05,2.313-0.676,3.239-1.509
		c0.287-0.261,0.571-0.525,0.86-0.784c0.492-0.439,1.269-0.499,1.789-0.141c0.472,0.326,0.624,0.916,0.372,1.585
		c-0.439,1.167-1.316,1.928-2.389,2.482c-1.41,0.734-2.917,0.965-4.494,0.885c-1.411-0.073-2.755-0.357-3.96-1.123
		c-1.715-1.09-2.684-2.698-3.005-4.662c-0.295-1.802-0.245-3.604,0.469-5.33c1.048-2.527,3.01-3.816,5.665-4.144
		c1.432-0.178,2.834-0.043,4.178,0.516c2.471,1.029,4.031,3.542,3.854,6.198c-0.073,1.092-0.735,1.658-2.081,1.797
		C182.394,60.98,180.928,60.854,179.751,60.903z M178.891,58.69c0.833,0,1.665,0,2.497,0c0.937,0,0.937,0,0.771-0.914
		c-0.434-2.382-2.753-3.586-4.813-2.483c-1.265,0.675-1.634,1.886-1.83,3.185c-0.039,0.259,0.171,0.211,0.317,0.211
		C176.853,58.692,177.872,58.69,178.891,58.69z"/>
	<path fill-rule="evenodd" clip-rule="evenodd" fill="#ED3028" d="M63.512,54.707c0.852-1.008,1.75-1.822,2.969-2.178
		c1.5-0.44,2.978-0.415,4.395,0.301c1.497,0.756,2.285,2.031,2.417,3.663c0.226,2.78,0.051,5.568,0.096,8.351
		c0.004,0.272,0.009,0.547-0.015,0.819c-0.1,1.187-0.862,1.964-1.891,1.94c-1.069-0.021-1.851-0.865-1.87-2.062
		c-0.021-1.276,0.007-2.558-0.009-3.836c-0.016-1.317,0.08-2.64-0.079-3.958c-0.029-0.241-0.061-0.483-0.121-0.718
		c-0.435-1.688-2.029-2.367-3.683-1.555c-1.256,0.616-1.815,1.684-1.911,3.043c-0.157,2.251-0.042,4.506-0.082,6.761
		c-0.003,0.229-0.015,0.459-0.059,0.684c-0.205,1.056-0.994,1.716-1.941,1.639c-1.028-0.086-1.758-0.873-1.773-1.969
		c-0.02-1.465-0.01-2.931-0.01-4.394c0-2.384-0.01-4.768,0.009-7.151c0.013-1.485,1.405-2.319,2.635-1.599
		c0.55,0.322,0.805,0.839,0.879,1.455C63.498,54.167,63.496,54.395,63.512,54.707z"/>
	<path fill-rule="evenodd" clip-rule="evenodd" fill="#ED3028" d="M132.75,66.774c-2.5,0-4.999,0-7.498-0.002
		c-1.207,0-1.763-0.557-1.764-1.76c0-3.305,0.003-6.606-0.006-9.911c0-0.292,0.083-0.458,0.343-0.609
		c2.903-1.7,5.799-3.414,8.692-5.131c0.185-0.108,0.32-0.11,0.507,0c2.905,1.725,5.812,3.446,8.726,5.154
		c0.236,0.139,0.303,0.288,0.302,0.544c-0.007,3.361-0.004,6.722-0.005,10.082c-0.001,1.038-0.581,1.627-1.628,1.631
		C137.863,66.78,135.306,66.774,132.75,66.774z M132.78,65.93c4.042-0.004,7.304-3.269,7.307-7.311
		c0.002-4.046-3.298-7.341-7.344-7.334c-4.016,0.008-7.289,3.312-7.285,7.351C125.462,62.673,128.737,65.936,132.78,65.93z"/>
	<path fill-rule="evenodd" clip-rule="evenodd" fill="#ED3028" d="M125.237,49.573c-1.688-1.431-2.161-2.951-1.425-4.5
		c0.708-1.494,2.248-2.293,3.858-1.974c1.337,0.263,2.755,1.407,2.796,3.544c0.624-0.321,1.237-0.616,1.829-0.95
		c0.335-0.188,0.618-0.174,0.955,0.002c3.239,1.686,6.399,3.514,9.566,5.328c0.385,0.222,0.774,0.436,1.146,0.677
		c0.792,0.514,0.981,1.492,0.441,2.205c-0.434,0.57-1.097,0.717-1.802,0.318c-1.072-0.604-2.117-1.258-3.175-1.885
		c-2.119-1.253-4.242-2.499-6.356-3.761c-0.229-0.137-0.382-0.129-0.608,0.006c-1.571,0.941-3.154,1.865-4.732,2.794
		c-0.071,0.042-0.145,0.081-0.288,0.16c0-0.562,0-1.07,0-1.578c0-0.703-0.01-1.408,0.006-2.11c0.005-0.248-0.076-0.312-0.317-0.315
		c-0.861-0.014-0.861-0.023-0.861,0.848c0,1.177-0.002,2.355,0.002,3.533c0.001,0.195-0.016,0.351-0.214,0.467
		c-1.038,0.607-2.051,1.258-3.104,1.838c-1.011,0.557-2.12-0.078-2.121-1.18c0-0.647,0.333-1.109,0.881-1.427
		C122.877,50.938,124.042,50.265,125.237,49.573z M128.897,46.205c-0.001-0.62-0.275-1.195-0.751-1.571
		c-0.134-0.105-0.271-0.258-0.44-0.069c-0.169,0.189-0.01,0.297,0.122,0.417c0.81,0.734,0.806,1.703-0.007,2.46
		c-0.114,0.105-0.274,0.199-0.134,0.386c0.149,0.202,0.3,0.093,0.438-0.019C128.63,47.396,128.901,46.866,128.897,46.205z
		 M125.79,44.479c-0.087,0.062-0.211,0.132-0.315,0.226c-0.891,0.797-0.875,2.253,0.035,3.037c0.146,0.125,0.317,0.326,0.505,0.099
		c0.171-0.208-0.045-0.319-0.181-0.443c-0.504-0.457-0.66-1.023-0.473-1.672c0.093-0.322,0.302-0.578,0.571-0.783
		c0.11-0.084,0.18-0.189,0.105-0.332C125.996,44.53,125.927,44.482,125.79,44.479z M125.729,46.308
		c0.026,0.375,0.238,0.706,0.645,0.915c0.152,0.079,0.279,0.079,0.364-0.08c0.076-0.14,0-0.236-0.112-0.328
		c-0.579-0.473-0.583-0.761-0.014-1.205c0.112-0.087,0.202-0.173,0.132-0.319c-0.081-0.172-0.221-0.153-0.368-0.096
		C126.009,45.336,125.721,45.795,125.729,46.308z M127.989,46.219c0.003-0.405-0.314-0.896-0.663-1.028
		c-0.131-0.05-0.252-0.062-0.345,0.067c-0.1,0.14-0.027,0.23,0.083,0.325c0.612,0.519,0.611,0.721-0.003,1.248
		c-0.108,0.093-0.18,0.193-0.084,0.329c0.085,0.12,0.19,0.137,0.336,0.075C127.685,47.083,127.985,46.646,127.989,46.219z
		 M127.163,46.285c0.008-0.268-0.109-0.39-0.298-0.399c-0.195-0.01-0.326,0.124-0.335,0.313c-0.008,0.19,0.106,0.323,0.309,0.331
		C127.042,46.538,127.154,46.43,127.163,46.285z"/>
	<path fill-rule="evenodd" clip-rule="evenodd" fill="#ED3028" d="M55.723,57.14c0,2.798,0.017,5.6-0.01,8.4
		c-0.008,0.843-0.379,1.53-1.204,1.877c-0.761,0.317-1.49,0.234-2.134-0.293c-0.623-0.511-0.759-1.244-0.761-1.984
		c-0.014-5.342-0.015-10.684,0-16.026c0.002-0.817,0.165-1.618,0.917-2.118c0.662-0.44,1.38-0.463,2.088-0.121
		c0.75,0.363,1.078,1.03,1.095,1.82c0.035,1.723,0.025,3.447,0.03,5.17c0.004,1.091,0.001,2.183,0.001,3.275
		C55.737,57.14,55.73,57.14,55.723,57.14z"/>
	<path fill-rule="evenodd" clip-rule="evenodd" fill="#ED3028" d="M98.542,59.877c0,1.794,0.001,3.587-0.001,5.378
		c-0.001,0.478-0.065,0.947-0.291,1.374c-0.378,0.714-1.128,1.062-1.952,0.927c-0.796-0.131-1.37-0.731-1.512-1.601
		c-0.03-0.183-0.042-0.372-0.042-0.557c-0.002-3.674-0.002-7.346,0-11.018c0-0.302,0.033-0.602,0.133-0.89
		c0.279-0.798,1.001-1.297,1.811-1.249c0.894,0.053,1.601,0.642,1.77,1.489c0.059,0.294,0.09,0.592,0.089,0.894
		C98.538,56.375,98.542,58.126,98.542,59.877z"/>
	<path fill-rule="evenodd" clip-rule="evenodd" fill="#FEFEFE" d="M132.78,65.93c-4.043,0.006-7.318-3.257-7.323-7.294
		c-0.004-4.039,3.27-7.343,7.285-7.351c4.046-0.007,7.346,3.289,7.344,7.334C140.084,62.661,136.823,65.926,132.78,65.93z
		 M132.797,55.033c-2.017-0.006-3.623,1.58-3.627,3.579c-0.005,1.959,1.613,3.591,3.571,3.607c1.98,0.018,3.617-1.604,3.625-3.594
		C136.374,56.645,134.779,55.039,132.797,55.033z"/>
	<path fill-rule="evenodd" clip-rule="evenodd" fill="#ED3028" d="M132.797,55.033c1.982,0.005,3.577,1.612,3.568,3.593
		c-0.008,1.989-1.644,3.611-3.625,3.594c-1.958-0.017-3.576-1.648-3.571-3.607C129.174,56.613,130.78,55.027,132.797,55.033z"/>
</g>
<circle cx="26.763" cy="57.807" r="20.908"/>
<path fill-rule="evenodd" clip-rule="evenodd" fill="#ED3028" d="M98.546,48.486c0.009,1.067-0.781,1.867-1.87,1.895
	c-1.104,0.027-1.934-0.767-1.941-1.857c-0.007-1.031,0.828-1.856,1.9-1.88C97.699,46.622,98.537,47.429,98.546,48.486z"/>
<g>
	<path fill="#FFFFFF" d="M12.971,52.205h2.092l0.176,1.475h0.088c0.903-0.969,1.959-1.739,3.303-1.739
		c1.585,0,2.488,0.727,2.995,1.938c1.035-1.101,2.114-1.938,3.479-1.938c2.29,0,3.347,1.563,3.347,4.293v6.782h-2.554v-6.451
		c0-1.784-0.528-2.444-1.651-2.444c-0.683,0-1.431,0.44-2.268,1.343v7.552h-2.532v-6.451c0-1.784-0.528-2.444-1.673-2.444
		c-0.661,0-1.431,0.44-2.268,1.343v7.552h-2.532V52.205z"/>
	<path fill="#FFFFFF" d="M32.079,65.416c1.145,0,1.806-0.771,2.158-1.85l0.198-0.683l-4.25-10.679h2.576l1.872,5.307
		c0.308,0.947,0.617,2.026,0.947,3.039h0.088c0.265-0.991,0.551-2.07,0.815-3.039l1.629-5.307h2.444L36.637,63.5
		c-0.903,2.444-2.026,3.963-4.382,3.963c-0.595,0-1.013-0.088-1.409-0.22l0.462-1.981C31.507,65.327,31.815,65.416,32.079,65.416z"
		/>
</g>
<rect opacity="0" fill="none" stroke="#FFFFFF" stroke-miterlimit="10" width="193" height="116"/>
</svg>
