<?xml version="1.0" encoding="utf-8"?>
<!-- Generator: Adobe Illustrator 16.0.0, SVG Export Plug-In . SVG Version: 6.00 Build 0)  -->
<!DOCTYPE svg PUBLIC "-//W3C//DTD SVG 1.1//EN" "http://www.w3.org/Graphics/SVG/1.1/DTD/svg11.dtd">
<svg version="1.1" id="Layer_1" xmlns="http://www.w3.org/2000/svg" xmlns:xlink="http://www.w3.org/1999/xlink" x="0px" y="0px"
	 width="193px" height="116px" viewBox="0 0 193 116" enable-background="new 0 0 193 116" xml:space="preserve">
<g>
	<path fill="#5C5C5C" d="M127.629,38.729c-10.008,0-18.119,7.821-18.119,17.478c0,9.658,8.112,17.491,18.119,17.491
		c10.01,0,18.121-7.833,18.121-17.491C145.75,46.549,137.639,38.729,127.629,38.729z M126.686,44.326
		c6.469,0,11.713,4.992,11.713,11.151s-5.244,11.15-11.713,11.15c-6.469,0-11.711-4.991-11.711-11.15S120.217,44.326,126.686,44.326
		z"/>
	<path fill="#D51100" d="M139.759,19.518c-0.577-0.017-1.043,0.223-1.552,0.573c-0.624,0.429-1.163,1.125-1.484,1.81
		c-1.64,3.503-3.191,6.878-4.755,10.24c-0.384,0.827-0.828,1.751-1.495,2.372c-0.418,0.389-0.833,0.74-1.383,0.584
		c-0.568-0.161-0.758-0.432-0.955-0.989c-0.251-0.709-0.236-2.096-0.315-2.844c-0.154-1.46,0.039-2.963-0.337-4.384
		c-0.176-0.667-0.774-2.152-1.697-2.203c-1.412-0.079-2.43,2.077-3.035,3.282c-1.413,2.818-1.874,5.972-1.843,10.542
		c0.003,0.488,0.04,1.462,0.04,1.462s2.009-0.676,3.029-0.877c0.59-0.116,1.189-0.21,1.799-0.269c0.609-0.06,1.229-0.09,1.854-0.09
		c0.626,0,1.246,0.03,1.854,0.09c0.609,0.059,1.208,0.153,1.798,0.269c1.181,0.233,2.323,0.57,3.406,1.012
		c1.084,0.442,2.105,0.979,3.069,1.608c0.963,0.627,1.866,1.345,2.686,2.135c0.819,0.791,1.562,1.655,2.214,2.585
		c0.652,0.93,1.206,1.934,1.664,2.979c0.458,1.045,0.815,2.144,1.057,3.282c0.12,0.569,0.219,1.143,0.281,1.73
		c0.062,0.588,0.09,1.183,0.09,1.788c0,0.603-0.028,1.199-0.09,1.787c-0.062,0.588-0.161,1.173-0.281,1.742
		c-0.241,1.139-0.599,2.236-1.057,3.283c-0.184,0.419-0.369,0.801-0.585,1.203l0.214,0.044c2.055,0.414,4.033,0.61,6.125,0.495
		c3.251-0.179,6.645-0.397,9.509-1.945c0.967-0.522,2.24-1.296,2.272-2.394c0.027-0.998-0.979-1.742-1.833-2.26
		c-0.86-0.521-2.13-0.588-3.125-0.73c-1.48-0.211-2.752-0.021-4.328-0.203c-1.283-0.147-3.188-0.403-3.462-1.731
		c-0.262-1.265,1.3-2.357,2.226-3.259c1.865-1.819,4.215-3.061,6.261-4.676c2.36-1.864,4.626-3.553,6.767-5.666
		c0.681-0.671,1.337-1.19,1.843-2.001c0.361-0.576,0.794-1.48,0.731-2.158c-0.042-0.45-0.289-0.791-0.664-1.045
		c-0.608-0.413-1.266-0.365-2.001-0.36c-0.76,0.005-1.396,0.187-2.113,0.439c-1.973,0.692-3.834,1.685-5.71,2.607
		c-1.388,0.682-2.613,1.752-4.104,2.158c-0.895,0.244-2.193,0.845-2.776,0.124c-0.569-0.702,0.327-1.786,0.674-2.619
		c0.715-1.713,1.875-3.213,2.855-4.788c1.1-1.767,2.389-3.407,3.395-5.228c0.494-0.894,1.117-1.781,1.293-2.788
		c0.126-0.723,0.148-1.541-0.191-2.192c-0.194-0.374-0.556-0.712-0.967-0.809c-0.741-0.175-1.562,0.152-2.259,0.46
		c-1.023,0.455-2.406,1.451-3.181,2.26c-2.634,2.75-4.763,5.167-7.261,7.722c-0.856,0.875-2.005,2.436-3.126,1.945
		c-0.776-0.339-0.615-1.622-0.517-2.451c0.297-2.517,0.834-5.101,1.124-7.666c0.136-1.209,0.396-2.526,0.292-3.642
		c-0.057-0.615-0.126-1.204-0.484-1.708c-0.253-0.358-0.768-0.552-1.201-0.619c-0.091-0.011-0.18-0.017-0.263-0.02L139.759,19.518z
		 M126.688,44.326c-0.81,0-1.599,0.076-2.361,0.225c-0.762,0.149-1.513,0.348-2.213,0.63l-0.04,0.039l0.028,0.074
		c1.308,3.438,2.87,6.939,5.261,9.756c2.405,2.834,5.505,5.09,8.826,6.816l0.076,0.04c0.049-0.064,0.09-0.125,0.136-0.191
		c0.421-0.592,0.783-1.231,1.079-1.899c0.297-0.667,0.53-1.364,0.686-2.09c0.156-0.726,0.236-1.479,0.236-2.248
		c0-0.77-0.08-1.522-0.236-2.248c-0.156-0.726-0.389-1.424-0.686-2.091c-0.296-0.667-0.658-1.306-1.079-1.899
		c-0.421-0.594-0.897-1.137-1.428-1.642c-0.529-0.504-1.108-0.971-1.73-1.372c-0.623-0.401-1.289-0.741-1.989-1.022
		c-0.701-0.282-1.441-0.504-2.203-0.652C128.286,44.402,127.496,44.326,126.688,44.326z"/>
	<path fill="#FFFFFF" d="M143.737,64.222c0.216-0.402,0.401-0.785,0.584-1.205c0.459-1.046,0.815-2.144,1.057-3.283
		c0.121-0.569,0.219-1.154,0.281-1.742c0.062-0.588,0.09-1.184,0.09-1.788c0-0.603-0.028-1.199-0.09-1.787
		c-0.062-0.588-0.161-1.162-0.281-1.731c-0.242-1.138-0.598-2.236-1.057-3.282c-0.458-1.045-1.012-2.049-1.663-2.979
		c-0.652-0.93-1.395-1.794-2.214-2.584c-0.819-0.791-1.723-1.508-2.687-2.136c-0.964-0.628-1.985-1.166-3.069-1.608
		c-1.084-0.442-2.226-0.779-3.406-1.011c-0.59-0.116-1.189-0.21-1.798-0.27c-0.609-0.06-1.229-0.09-1.854-0.09
		c-0.626,0-1.246,0.03-1.855,0.09c-0.609,0.06-1.208,0.154-1.799,0.27c-1.02,0.202-2.08,0.506-3.029,0.866
		c0.116,1.426,0.516,3.622,1.129,5.267l0.046-0.018c0.701-0.282,1.44-0.504,2.203-0.652c0.763-0.148,1.552-0.225,2.361-0.225
		s1.598,0.076,2.359,0.225c0.763,0.149,1.504,0.371,2.204,0.652s1.367,0.622,1.989,1.022c0.623,0.4,1.201,0.867,1.731,1.372
		c0.531,0.504,1.007,1.048,1.427,1.641c0.422,0.593,0.783,1.232,1.08,1.9c0.296,0.667,0.529,1.365,0.685,2.09
		c0.155,0.726,0.235,1.479,0.235,2.249c0,0.77-0.08,1.522-0.235,2.248c-0.156,0.725-0.39,1.423-0.685,2.09
		c-0.297,0.667-0.658,1.306-1.08,1.899c-0.046,0.066-0.092,0.125-0.139,0.19C138.728,63.04,141.418,63.748,143.737,64.222z"/>
	<path fill="#171717" d="M53.627,56.354c-0.749,0-1.345,0.612-1.345,1.379v15.476c0,0.768,0.596,1.379,1.345,1.379
		c0.75,0,1.357-0.612,1.357-1.379V57.733C54.984,56.967,54.377,56.354,53.627,56.354z M58.886,56.354
		c-0.75,0-1.356,0.612-1.356,1.379v15.476c0,0.768,0.607,1.379,1.356,1.379s1.345-0.612,1.345-1.379V71.23l2.091-2.001l4.169,4.959
		c0.397,0.518,1.378,0.484,1.834,0.078c0.5-0.444,0.419-1.373,0.022-1.89l-4.024-5.058l3.857-3.702
		c0.608-0.609,0.469-1.424-0.044-1.869c-0.645-0.556-1.404-0.396-1.878,0.078l-6.026,5.681v-9.772c0-0.767-0.597-1.378-1.346-1.378
		L58.886,56.354L58.886,56.354z M27.211,57.366c-0.638,0-1.156,0.547-1.156,1.234s0.518,1.245,1.156,1.245h4.704v13.453
		c0,0.72,0.596,1.29,1.345,1.29c0.75,0,1.357-0.57,1.357-1.29V59.846h4.881c0.638,0,1.156-0.558,1.156-1.245
		s-0.518-1.234-1.156-1.234H27.211L27.211,57.366z M75.853,61.291c-3.826,0-6.927,3.023-6.927,6.748
		c0,3.726,3.101,6.738,6.927,6.738c3.825,0,6.926-3.013,6.926-6.738C82.779,64.314,79.678,61.291,75.853,61.291z M99.045,61.369
		c-0.398-0.006-0.792,0.022-1.179,0.1c-0.708,0.144-1.396,0.418-2.023,0.78c-0.496,0.284-1.345,0.933-1.345,0.933
		s-0.875-1.229-2.512-1.668c-0.361-0.095-0.731-0.195-1.101-0.197c-0.674-0.006-1.375,0.054-2.013,0.275
		c-0.733,0.255-1.967,1.246-1.967,1.246v-0.088c0-0.772-0.597-1.235-1.346-1.235c-0.921,0-1.345,0.619-1.345,1.391V73.2
		c0,0.771,0.597,1.39,1.345,1.39c0.749,0,1.356-0.619,1.356-1.39v-6.582c0-0.972,0.612-1.829,1.434-2.347
		c0.355-0.222,0.952-0.314,1.368-0.366c0.453-0.056,0.851-0.049,1.49,0.1c0.781,0.216,1.634,1.163,1.634,2.602v6.592
		c0,0.771,0.597,1.39,1.345,1.39c0.749,0,1.356-0.619,1.356-1.39v-6.903c0-0.687,0.68-1.543,1.234-1.947
		c0.499-0.362,1.107-0.489,1.724-0.5c0.5-0.009,0.991,0.013,1.466,0.334c0.358,0.24,0.689,0.619,0.891,1
		c0.232,0.443,0.333,0.588,0.333,1.09l0.011,0.078V73.2c0,0.771,0.596,1.39,1.345,1.39c0.75,0,1.357-0.743,1.357-1.39v-7.333
		c0-1.345-0.456-2.09-0.845-2.597c-0.393-0.484-0.912-0.866-1.446-1.189c-0.428-0.26-0.898-0.477-1.389-0.578
		C99.838,61.423,99.443,61.375,99.045,61.369z M44.59,61.381c-4.018,0-6.57,3.023-6.57,6.748s2.8,6.625,6.626,6.625
		c2.762,0,3.846-0.476,5.036-1.667c0.403-0.403,0.754-1.447,0.167-2.035c-0.465-0.465-1.35-0.291-1.702-0.033
		c-1.058,0.775-2.09,1.324-3.501,1.324c-1.994,0-3.512-1.419-3.603-3.091h7.594c0.875,0,1.248-0.233,1.557-0.467
		c0.243-0.184,0.544-0.807,0.544-1.112C50.738,64.362,48.392,61.38,44.59,61.381L44.59,61.381L44.59,61.381z M75.832,63.682
		c2.344,0,4.246,1.974,4.246,4.414c0,2.44-1.902,4.425-4.246,4.425c-2.346,0-4.248-1.985-4.248-4.425
		C71.584,65.655,73.486,63.682,75.832,63.682z M44.412,63.704c2.289,0,3.336,1.624,3.336,3.057H41.01
		C41.01,65.372,42.189,63.704,44.412,63.704L44.412,63.704z"/>
	<path fill="#171717" d="M69.17,78.118c-0.711,0-1.278,0.574-1.278,1.29v5.647c-0.889-1.192-2.258-2.121-4.358-2.045
		c-3.824,0.136-6.615,2.667-6.615,6.704c0,3.725,2.611,6.649,6.437,6.649c2.199,0,3.617-1.03,4.536-2.28v0.891
		c0,0.714,0.567,1.289,1.278,1.289c0.713,0,1.29-0.575,1.29-1.289V79.408C70.46,78.693,69.883,78.119,69.17,78.118L69.17,78.118
		L69.17,78.118z M39.463,78.74c-0.712,0-1.278,0.608-1.278,1.367v14.743c0,0.759,0.566,1.367,1.278,1.367
		c0.712,0,1.29-0.608,1.29-1.367V80.107C40.753,79.348,40.175,78.74,39.463,78.74z M119.114,82.91
		c-0.889,0.034-1.817,0.147-2.613,0.544c-0.648,0.324-1.245,0.823-1.634,1.434c-0.356,0.56-0.562,1.249-0.556,1.913
		c0.007,0.667,0.22,1.362,0.601,1.912c0.385,0.555,1.007,0.922,1.601,1.246c0.807,0.439,1.739,0.595,2.602,0.911
		c0.679,0.25,1.481,0.3,2.023,0.779c0.312,0.275,0.578,0.684,0.588,1.101c0.013,0.449-0.271,0.841-0.611,1.134
		c-0.402,0.345-1.094,0.367-1.623,0.378c-0.619,0.012-1.114-0.086-1.702-0.278c-0.389-0.127-0.72-0.303-1.089-0.478
		c-0.3-0.141-0.571-0.342-0.878-0.467c-0.298-0.121-0.619-0.338-0.934-0.266c-0.346,0.077-0.641,0.378-0.79,0.699
		c-0.125,0.274-0.065,0.464,0.045,0.746c0.145,0.366,0.474,0.654,0.79,0.889c0.478,0.357,1.174,0.649,1.745,0.823
		c0.867,0.263,1.607,0.412,2.514,0.4c0.931-0.013,1.859-0.069,2.735-0.389c0.812-0.298,1.341-0.755,1.811-1.479
		c0.426-0.654,0.582-1.288,0.535-2.067c-0.032-0.524-0.048-1.164-0.322-1.612c-0.31-0.505-0.814-0.938-1.312-1.256
		c-0.697-0.448-1.393-0.627-2.157-0.945c-0.6-0.25-1.221-0.465-1.812-0.734c-0.375-0.17-0.814-0.261-1.101-0.556
		c-0.225-0.232-0.425-0.555-0.411-0.878c0.015-0.372,0.262-0.739,0.556-0.968c0.381-0.297,0.915-0.378,1.4-0.389
		c0.441-0.008,0.936,0.121,1.356,0.256c0.37,0.119,0.692,0.359,1.056,0.489c0.438,0.156,0.814,0.409,1.279,0.4
		c0.391-0.008,0.891-0.056,1.112-0.378c0.211-0.309,0.125-0.791-0.045-1.124c-0.196-0.38-0.635-0.689-1.001-0.911
		c-0.501-0.303-1.049-0.441-1.612-0.6C120.566,82.991,119.835,82.881,119.114,82.91z M78.88,82.92c-3.826,0-6.926,3.024-6.926,6.75
		c0,3.724,3.1,6.737,6.926,6.737c3.825,0,6.926-3.013,6.926-6.737C85.806,85.944,82.706,82.92,78.88,82.92z M107.375,82.954
		c-4.018,0-6.582,3.023-6.582,6.749c0,3.725,2.8,6.626,6.626,6.626c2.762,0,3.846-0.477,5.036-1.667
		c0.403-0.403,0.754-1.447,0.167-2.035c-0.464-0.465-1.349-0.291-1.701-0.034c-1.058,0.776-2.089,1.323-3.501,1.323
		c-1.994,0-3.512-1.419-3.603-3.091h7.594c0.874,0,1.247-0.232,1.556-0.467c0.243-0.185,0.545-0.806,0.545-1.111
		C113.512,85.936,111.176,82.954,107.375,82.954z M136.271,82.999c-0.898-0.012-1.817,0.072-2.669,0.355
		c-0.474,0.159-0.976,0.362-1.312,0.734c-0.256,0.284-0.516,0.678-0.456,1.056c0.054,0.337,0.227,0.619,0.678,0.767
		c0.813,0.268,1.364-0.238,2.468-0.533c1.24-0.333,2.851-0.315,3.87,0.467c0.699,0.537,0.96,2.24,0.989,2.457
		c-0.274-0.085-0.619-0.19-0.878-0.233c-0.65-0.108-1.311-0.125-1.968-0.122c-0.855,0.002-1.727-0.005-2.557,0.177
		c-0.816,0.181-1.671,0.354-2.312,0.89c-0.581,0.486-1.008,1.22-1.224,1.946c-0.25,0.846-0.225,1.996,0.111,2.812
		c0.377,0.915,1.104,1.421,1.968,1.9c0.829,0.461,1.831,0.667,2.779,0.657c1.139-0.012,2.337-0.331,3.291-0.956
		c0.362-0.237,0.812-0.924,0.812-0.924l-0.011,0.567c-0.02,0.681,0.577,1.268,1.289,1.268c0.713,0,1.279-0.564,1.279-1.268v-3.435
		c0,0-0.008-3.314-0.289-5.015c-0.13-0.793-0.733-1.609-1.301-2.179c-0.491-0.493-1.044-0.716-1.634-0.922
		C138.263,83.14,137.257,83.011,136.271,82.999z M49.739,83.054c-0.542,0.01-1.185,0.059-1.601,0.201
		c-0.822,0.279-2.113,1.177-2.113,1.177v-0.088c0-0.45-0.141-1.245-1.256-1.245c-0.918,0-1.201,0.751-1.201,1.522v10.296
		c0,0.771,0.596,1.39,1.345,1.39c0.749,0,1.357-0.619,1.357-1.39v-6.582c0-0.972,0.612-1.829,1.435-2.346
		c0.354-0.223,0.952-0.315,1.366-0.367c0.453-0.056,0.853-0.05,1.49,0.1c0.784,0.215,1.891,1.162,1.891,2.601v6.594
		c0,0.771,0.596,1.39,1.345,1.39s1.356-0.619,1.356-1.39v-6.86c0-1.506-0.429-2.511-1.023-3.28
		c-0.609-0.791-1.696-1.352-2.667-1.612l-0.078-0.01c-0.379-0.09-0.773-0.097-1.146-0.101C50.093,83.054,49.92,83.051,49.739,83.054
		z M93.855,83.054c-0.542,0.01-1.186,0.059-1.601,0.201c-0.822,0.279-2.113,1.177-2.113,1.177v-0.088c0-0.45-0.14-1.245-1.256-1.245
		c-0.919,0-1.201,0.751-1.201,1.522v10.296c0,0.771,0.596,1.39,1.346,1.39c0.748,0,1.356-0.619,1.356-1.39v-6.582
		c0-0.972,0.612-1.829,1.434-2.346c0.354-0.223,0.953-0.315,1.368-0.367c0.453-0.056,0.851-0.05,1.49,0.1
		c0.784,0.215,1.89,1.162,1.89,2.601v6.594c0,0.771,0.596,1.39,1.346,1.39c0.748,0,1.356-0.619,1.356-1.39v-6.86
		c0-1.506-0.429-2.511-1.023-3.28c-0.61-0.791-1.696-1.352-2.668-1.612l-0.078-0.01c-0.378-0.09-0.773-0.097-1.146-0.101
		C94.209,83.054,94.036,83.051,93.855,83.054z M127.61,83.143c-0.713,0-1.278,0.564-1.278,1.267V94.95
		c0,0.704,0.566,1.268,1.278,1.268c0.712,0,1.289-0.564,1.289-1.268V84.41C128.899,83.707,128.322,83.143,127.61,83.143z
		 M107.197,85.289c2.289,0,3.335,1.612,3.335,3.046h-6.749C103.783,86.945,104.974,85.289,107.197,85.289z M78.857,85.312
		c2.344,0,4.247,1.973,4.247,4.414c0,2.44-1.903,4.425-4.247,4.425c-2.345,0-4.248-1.985-4.248-4.425
		C74.61,87.284,76.512,85.312,78.857,85.312z M63.648,85.356c2.345,0,4.247,1.973,4.247,4.413c0,2.44-1.813,4.159-4.158,4.159
		c-2.345,0-4.158-1.718-4.158-4.159C59.579,87.329,61.303,85.356,63.648,85.356z M136.381,89.892
		c0.729-0.04,1.504,0.055,2.225,0.167c0.362,0.056,0.871,0.152,1.323,0.244c0.003,0.065,0.067,1.149-0.133,1.656
		c-0.271,0.688-0.704,1.458-1.346,1.847c-0.698,0.421-1.651,0.514-2.468,0.5c-0.649-0.012-1.342-0.163-1.867-0.544
		c-0.488-0.356-0.774-0.834-0.823-1.435c-0.058-0.708,0.126-1.352,0.667-1.812C134.589,89.977,135.555,89.937,136.381,89.892z"/>
</g>
<rect opacity="0" fill="none" stroke="#FFFFFF" stroke-miterlimit="10" width="193" height="116"/>
</svg>
